<svg xmlns="http://www.w3.org/2000/svg" xmlns:xlink="http://www.w3.org/1999/xlink" id="Calque_1" x="0px" y="0px" viewBox="0 0 1275.6 850.4" style="enable-background:new 0 0 1275.6 850.4;" xml:space="preserve"><style type="text/css">	.st0{fill:#BDAE00;}	.st1{fill:#3C3C3B;}	.st2{display:none;}	.st3{display:inline;fill:#3C3C3B;}	.st4{fill:#FFFFFF;}</style><rect id="Fond_dor&#xE9;" class="st0" width="1275.6" height="850.4"></rect><g id="Coin_haut_gauche">	<rect id="Horizontale" x="56.7" y="56.7" class="st1" width="226.8" height="14.2"></rect>			<rect id="Verticale" x="-49.6" y="163" transform="matrix(6.123234e-17 -1 1 6.123234e-17 -106.2992 233.8583)" class="st1" width="226.8" height="14.2"></rect></g><g id="Coin_haut_droite" class="st2">	<rect id="Horizontale_1_" x="992.1" y="56.7" class="st3" width="226.8" height="14.2"></rect>			<rect id="Verticale_1_" x="1098.4" y="163" transform="matrix(6.123234e-17 -1 1 6.123234e-17 1041.7323 1381.8898)" class="st3" width="226.8" height="14.2"></rect></g><g id="Coin_bas_gauche" class="st2">	<rect id="Horizontale_2_" x="56.7" y="779.5" class="st3" width="226.8" height="14.2"></rect>			<rect id="Verticale_2_" x="-49.6" y="673.2" transform="matrix(6.123234e-17 -1 1 6.123234e-17 -616.5355 744.0945)" class="st3" width="226.8" height="14.2"></rect></g><g id="Coin_bas_droite">	<rect id="Horizontale_3_" x="992.1" y="779.5" class="st1" width="226.8" height="14.2"></rect>			<rect id="Verticale_3_" x="1098.4" y="673.2" transform="matrix(6.123234e-17 -1 1 6.123234e-17 531.496 1892.126)" class="st1" width="226.8" height="14.2"></rect></g><g id="L" class="st2">	<path class="st3" d="M293.8,400.9c16.5-0.9,32.9-2.6,49.1-5.1l6.1-1l3-0.5l3-0.6c4-0.8,8.1-1.5,12.1-2.3l12.1-2.7c4-0.9,8-2,12-3  c31.8-8.3,62.9-19.6,92.7-33.5c14.9-6.9,29.5-14.5,43.8-22.6c14.3-8.2,28.2-16.8,41.9-26c27.3-18.3,53.1-38.8,77.5-60.8  c12.2-11,24-22.4,35.4-34.2c1.4-1.5,2.9-2.9,4.3-4.4l4.2-4.5l4.2-4.5c1.4-1.5,2.7-2.9,4-4.5c5.2-6.2,10.1-12.7,14.8-19.3  c4.7-6.7,9.1-13.5,13.1-20.5c4-7,7.6-14.2,10.2-21.6c1.3-3.7,2.5-7.4,3.2-11.1c0.7-3.7,1-7.3,0.6-10.7c-0.4-3.4-1.4-6.3-3.2-8.7  c-1.8-2.4-4.7-4.5-7.8-6.3c-1.6-0.9-3.3-1.7-5-2.4c-1.7-0.7-3.5-1.4-5.2-1.8c-3.5-1-7.1-1.5-10.8-1.7c-3.7-0.2-7.4,0.2-11.1,0.8  c-3.7,0.7-7.4,1.6-11.1,2.9c-7.3,2.5-14.5,6-21.8,9.8c-7.3,3.7-14.5,7.6-21.6,11.6c-14.2,8-28.1,16.7-41.4,26.1  c-6.7,4.6-13.2,9.6-19.5,14.6c-3.2,2.5-6.3,5.1-9.3,7.8c-1.5,1.3-3,2.6-4.5,4c-0.7,0.7-1.5,1.3-2.2,2c-0.4,0.3-0.7,0.7-1.1,1  l-0.5,0.5L565,168c-0.2,0.2-0.5,0.4-0.7,0.7c-0.5,0.4-1.1,0.8-1.6,1.1l2-1.4c-12.3,12.7-23.9,26.1-34.8,40  c-10.8,14-20.8,28.6-30.1,43.7c-18.6,30.1-34.5,62.1-49.4,94.5c-7.4,16.2-13.8,32.5-19.6,49.3l-8.7,25.5c-3,8.5-5.9,17-9,25.5  c-1.5,4.2-3.1,8.5-4.7,12.7l-2.4,6.3c-0.8,2.1-1.6,4.2-2.4,6.3l-5,12.7c-1.7,4.2-3.5,8.4-5.3,12.6l-2.7,6.3l-2.9,6.2  c-1.9,4.1-3.8,8.3-5.8,12.4l-6.1,12.2c-1,2-2.1,4.1-3.1,6.1l-3.2,6l-3.2,6c-1.1,2-2.2,4-3.4,5.9c-2.3,3.9-4.5,7.9-6.8,11.8  c-4.7,7.8-9.4,15.6-14.4,23.2c-4.9,7.7-10.1,15.1-15.3,22.7l-8,11c-1.4,1.8-2.7,3.7-4,5.5l-4.2,5.4l-4.2,5.4  c-1.4,1.8-2.8,3.6-4.2,5.4l-8.6,10.6c-1.4,1.8-2.9,3.5-4.4,5.2l-4.5,5.2l-4.5,5.2c-1.5,1.7-3.1,3.4-4.6,5.1  c-12.1,13.6-25,26.5-38.1,39.2c-6.7,6.3-13.7,12.5-21.5,18.3c-7.7,5.7-16.1,10.9-25.4,14.8c-4.6,1.9-9.4,3.7-14.4,4.8  c-1.2,0.3-2.5,0.6-3.8,0.9c-1.3,0.2-2.6,0.5-3.9,0.6c-2.6,0.4-5.2,0.6-7.9,0.7c-10.5,0.3-21-1.3-31-5.3c-5-2-9.9-4.7-14.4-8.1  c-2.2-1.7-4.4-3.7-6.4-5.8c-2-2.2-3.8-4.5-5.4-7.1c-3.2-5.1-5.4-11-6.2-17c-0.9-6-0.5-12,0.7-17.6c1.2-5.6,3.3-10.9,6-15.7  c2.6-4.8,5.9-9.3,9.5-13.3c0.9-1,1.9-1.9,2.8-2.9l2.9-2.7l3-2.5l3.1-2.4c4.2-3,8.5-5.7,12.9-8c8.8-4.7,17.7-8.2,26.5-11.2  c4.4-1.5,8.8-2.9,13.1-4.4l6.6-2l3.3-1l3.3-0.9l6.6-1.9l6.7-1.7c4.4-1.2,8.9-2.2,13.4-3.3c8.9-2,17.9-3.9,26.8-5.6  c17.9-3.4,35.9-6.1,53.9-8.4c9-1.1,18-2.2,26.9-3.2c4.5-0.5,9-0.9,13.5-1.4c4.5-0.4,9-0.9,13.5-1.3c18-1.7,36-3.1,54.1-4.2  c18.1-1,36.2-1.8,54.3-2.1c36.2-0.5,72.6,0.6,108.7,4.3c9,0.8,18.1,2.1,27.1,3.2l13.5,2c2.2,0.3,4.5,0.7,6.7,1l6.7,1.2  c4.5,0.8,9,1.5,13.4,2.4l13.3,2.6l13.2,2.7l13.2,2.8c35.2,7.5,70.3,16,105,25.5l6.5,1.8l6.5,1.9l13,3.7c8.6,2.5,17.3,5.2,25.9,7.8  c17.2,5.5,34.3,11.1,51.2,17.2c17,5.9,33.8,12.6,50.4,19.4l12.4,5.3c4.2,1.7,8.2,3.6,12.3,5.5c8.2,3.6,16.3,7.6,24.4,11.5  c0.6,0.3,0.8,1,0.6,1.6c-0.3,0.6-0.9,0.8-1.5,0.6l0,0c-16.6-6.8-33.3-13.1-50.2-19.1c-16.9-5.9-33.9-11.5-51.1-16.6  c-34.2-10.4-68.9-19.5-103.7-27.6c-34.8-8.1-69.9-15.3-105.1-21.7l-13.2-2.4l-13.2-2.2l-13.2-2.2c-4.4-0.7-8.8-1.3-13.2-2l-6.6-1  c-2.2-0.3-4.4-0.6-6.6-0.8l-13.2-1.6c-8.8-0.8-17.6-1.8-26.5-2.4c-70.8-5.4-142-1.8-212.9,5.9c-35.5,3.8-70.9,8.2-105.6,14.7  c-8.7,1.6-17.3,3.5-25.9,5.4c-4.3,1.1-8.6,2-12.8,3.2l-6.4,1.6l-6.3,1.8L194,656l-3.1,0.9l-6.3,1.9c-4.1,1.4-8.4,2.6-12.4,4.1  c-8.2,2.8-16,5.9-23.1,9.6c-3.6,1.9-6.9,3.9-10,6.1l-2.3,1.7l-2.2,1.8l-2.1,1.9l-1.9,1.9c-4.9,5.1-8.5,11.5-9.9,17.8  c-1.5,6.3-0.7,12.2,2.3,17.2c3,5,8.5,9.3,15.1,12.1c6.6,2.8,14.2,4.2,21.6,4c1.9,0,3.7-0.1,5.5-0.4c0.9-0.1,1.8-0.3,2.7-0.4  c0.9-0.2,1.8-0.3,2.7-0.6c3.8-0.8,7.5-2.1,11.1-3.5c7.3-3,14.4-7.1,21.1-11.9c6.8-4.9,13.3-10.4,19.8-16.3  c12.9-12,25.6-24.4,37.5-37.4c1.5-1.6,3-3.2,4.5-4.8l4.4-5l4.4-5c1.5-1.7,3-3.3,4.4-5l8.5-10.2c1.4-1.7,2.8-3.4,4.2-5.2l4.1-5.2  l4.1-5.2c1.4-1.7,2.7-3.5,4-5.3l7.9-10.6c5.1-7.2,10.3-14.4,15.1-21.8c5-7.3,9.6-14.9,14.3-22.4c2.3-3.8,4.5-7.6,6.7-11.4  c1.1-1.9,2.3-3.8,3.3-5.7l3.2-5.8l3.2-5.8c1.1-1.9,2.1-3.9,3.1-5.9l6-11.8c2-3.9,3.8-8,5.7-12l2.8-6l2.7-6.1  c1.8-4.1,3.6-8.1,5.3-12.2l5-12.3c0.8-2,1.6-4.1,2.4-6.2l2.4-6.3c1.6-4.2,3.2-8.4,4.7-12.5c3.1-8.4,6.2-16.7,9.2-25.2l9-25.4  c3-8.5,6.2-17.1,9.7-25.5c3.4-8.5,7.1-16.8,11-25c3.8-8.2,7.8-16.4,11.8-24.4c4-8.1,8.1-16.2,12.4-24.2c8.5-16,17.5-31.8,27.3-47.1  c9.8-15.3,20.3-30.2,31.6-44.5c11.3-14.3,23.5-27.9,36.3-40.8l2-1.4c-0.4,0.1-0.8,0.3-1.1,0.6c-0.2,0.1-0.3,0.2-0.5,0.4l0.1-0.1  l0.6-0.6c0.4-0.4,0.8-0.8,1.2-1.1c0.8-0.7,1.6-1.5,2.4-2.2c1.6-1.4,3.2-2.8,4.8-4.2c3.2-2.7,6.5-5.4,9.8-8  c6.7-5.2,13.4-10.2,20.3-14.9c13.8-9.5,28.1-18.2,42.8-26.2c7.3-4,14.7-7.9,22.2-11.5c7.4-3.7,15.2-7.4,23.5-10.2  c4.2-1.3,8.5-2.4,12.9-3.2c4.4-0.7,9-1.1,13.6-0.8c4.6,0.2,9.2,0.9,13.6,2.3c2.3,0.7,4.4,1.5,6.4,2.4c2.1,0.9,4.1,1.9,6.1,3.1  c4,2.3,7.9,5.2,11.1,9.4c1.6,2.1,2.8,4.5,3.7,6.9c0.9,2.4,1.4,4.9,1.6,7.3c0.5,4.9-0.1,9.5-1,13.9c-0.9,4.4-2.3,8.6-3.8,12.7  c-3.1,8.1-7,15.7-11.3,23c-4.3,7.3-9,14.3-13.9,21.1c-4.9,6.8-10.1,13.4-15.6,19.8c-1.4,1.6-2.8,3.2-4.3,4.7l-4.3,4.5l-4.3,4.5  c-1.4,1.5-2.9,2.9-4.4,4.4c-11.7,11.8-23.8,23.2-36.4,34.1c-25,21.9-51.4,42.2-79.3,60.3c-13.9,9.1-28.1,17.7-42.7,25.7  c-14.6,8-29.4,15.4-44.6,22.2c-3.8,1.7-7.6,3.4-11.4,5c-3.8,1.6-7.6,3.2-11.5,4.7l-11.6,4.5l-11.7,4.2c-15.7,5.4-31.6,10.1-47.7,14  c-4,0.9-8.1,1.9-12.1,2.8l-12.2,2.5c-4.1,0.7-8.2,1.4-12.2,2.1l-3.1,0.5l-3.1,0.4l-6.2,0.9c-16.4,2.3-32.9,3.7-49.5,4.3  c-0.7,0-1.2-0.5-1.2-1.1C292.7,401.5,293.2,401,293.8,400.9L293.8,400.9z"></path></g><g class="st2">	<path class="st3" d="M554.1,465.3c-13,31.6-22,58.1-26.9,79.6c2.1-1.7,4.9-4.4,8.4-8c3.5-3.6,5.6-5.7,6.5-6.3  c2-2.2,4.1-3.3,6.4-3.3c2.1,0,3.2,0.9,3.2,2.8c0,1.1-0.6,2.4-1.7,3.9c-13.3,17.2-22.1,34.6-26.5,52.2c-1.3,5-3.2,7.4-5.7,7.4  c-2.4,0-6.9-2-13.3-5.9c-3.8-2.2-6-4.1-6.6-5.6c-0.7-1.4-0.7-4.1,0-8.2c5.9-31.5,13.3-57.6,22.2-78.4c-12.3,17.5-29,36.8-50.2,58  c-18.5,18.5-31.8,30.2-40,35.3c-5.9,3.6-10.5,5.4-13.6,5.4c-2.5,0-6.4-1.8-11.6-5.4c-7.5-4-11.2-9.4-11.2-16.4  c0-1.4,0.1-2.9,0.4-4.6c2.5-18.3,11.7-39.7,27.5-64c15.8-24.3,34-44.9,54.4-61.6c6.6-5.5,12.6-8.1,17.8-8c5.1,0.2,14.8,6.1,29,17.7  c1.3,1,1.9,2,1.9,3.2c0,2-1.5,3-4.4,3c-1.1,0-2.2-0.2-3.2-0.6c-10-3.7-18.1-3.6-24.1,0.4c-13.3,8.5-28,23.6-44.1,45.2  c-18.6,24.8-29.9,47.1-33.7,66.9c-0.1,0.9-0.2,1.7-0.2,2.4c0,3.1,1.4,4.6,4.2,4.6c4.8,0,10.5-2.9,17.2-8.7  c15.8-13.5,32.8-30.5,50.8-50.9c18.5-21.2,30.4-37.2,35.6-48c3.8-7.9,6.3-13.5,7.4-16.7c1.8-5.6,3.8-8.4,5.9-8.4s7.1,2.5,14.8,7.6  c3.2,2.1,5,4,5.3,5.8C556.3,458.9,555.7,461.6,554.1,465.3z"></path>	<path class="st3" d="M736.9,454.3c-18.8,30.6-32.8,66.5-42.2,107.8c4-6.1,8.8-13.8,14.4-23.2c0.7-1.7,1.8-2.6,3.4-2.6  c2.1,0,3.2,1.2,3.2,3.5c0,0.7-0.2,1.6-0.6,2.4c-9,18.1-15,32-17.8,41.8c-1.7,6.2-4,9.3-6.8,9.3c-2.8,0-8.3-2.4-16.5-7.2  c-4.4-2.7-5.9-7.6-4.4-14.5c5.9-27,13.1-50.5,21.4-70.4c-27.3,38.9-50.1,67.6-68.6,86.1c-4.1,4.1-8.5,6.1-13.3,6.1  c-4,0-8.6-1.4-14-4.3c-9.7-1.5-14.6-5.9-14.6-13.4c0-1.4,0.1-2.8,0.4-4.5c3.5-35.4,10.9-64.9,22-88.3c-2.4,2-6,4.9-10.8,8.7  c-1.8,1.4-3.3,1.7-4.2,1.1c-1.1-0.7-0.9-2.2,0.6-4.3c7.6-9.8,12.1-16.2,13.6-19.3c4.4-9.7,9-17.2,13.8-22.5c2.5-2.7,5.2-4.1,8-4.1  c3.8,0,9.4,2,16.7,5.9c2,1.1,3,2.2,3,3.3l-4.7,6.1c-7.1,9.4-14.5,26-22.5,49.8c-8.6,25.8-13,46.8-13.1,63c0,5.3,1.3,8,3.8,8  c2.3,0,5.9-2.3,11-6.9c10.9-10.2,26.6-29.4,47.2-57.6c18.2-24.9,29.2-41.1,33-48.7c6.4-12.6,11.5-20.1,15.5-22.3  c2.5-1.5,4.8-2.2,6.8-2.2c2,0,5.8,1.3,11.4,3.9c5.6,2.6,8.5,4.5,8.5,5.8c0,0.4-0.5,0.9-1.5,1.5  C738.1,452.9,737.4,453.6,736.9,454.3z"></path>	<path class="st3" d="M867.4,351.9c4,1.9,5.9,4,5.9,6.3c0,1.6-1.3,2.4-4,2.4c-0.6,0-1.5-0.1-2.6-0.3c-1.2-0.2-2.1-0.3-2.6-0.3  c-5.4,0-11.9,5.1-19.5,15.4c-6.8,9.2-16.2,29.1-28.2,59.9c-1.1,2.7-1.6,4.3-1.3,4.8c0.4,0.9,2.3,1.4,5.5,1.5  c8.3,0.6,19.5,0.4,33.5-0.7c4.8-0.4,7.2,1.4,7.2,5.4c0,2.7-1.8,4.4-5.5,5c-3,0.4-18.6,1.5-46.8,3.3C792,498.2,781.7,535,778,565.1  c-0.1,1.6-0.2,3-0.2,4.3c0,4.2,1.2,6.3,3.6,6.3c3.8,0,15.3-8.1,34.5-24.3c2.3-2,4.4-3,6.6-3c1.8,0,3,0.7,3.4,2  c0.4,1.5-0.2,3.2-1.9,5.2c-11.4,13.3-22.7,24.5-33.7,33.8c-4.7,3.8-8.5,5.8-11.6,5.8c-3.1,0-7.9-2.2-14.4-6.5  c-8-1.9-12.1-5.6-12.1-11.2c0-0.9,0.1-1.9,0.4-3c5.2-32,15.5-71.3,30.7-118c-7.5-0.9-14.3-1.7-20.3-2.6c-2.7-0.4-4-1.9-4-4.5  c0-2.8,1.4-4.6,4.2-5.2c2.8-0.6,8-2,15.7-4.1c4.7-1.4,9.2-3.2,13.6-5.6c15.1-41,27-67.6,35.6-79.7c4.9-6.9,10.2-10.4,15.9-10.4  C849.3,344.5,857.1,346.9,867.4,351.9z"></path>	<path class="st3" d="M908.7,462.7c-3.4,16.7-12.2,44.5-26.5,83.5c4.1-3.2,9.7-9.1,16.9-17.7c1-1.1,2-1.7,3-1.7  c2.3,0,2.5,1.7,0.8,5.2c-0.7,1.4-6.6,9.9-17.8,25.5c-8.5,11.9-14.7,22.4-18.6,31.6c-1.3,2.8-3.6,4.3-7,4.3c-3.4,0-8-1.4-13.8-4.3  c-3.7-1.7-5.5-3-5.5-3.9c0-0.7,0.8-2.4,2.3-4.8c7.6-11.8,16.1-31.5,25.4-59.1c8.9-26.8,13.9-46.7,15-59.7c0.4-5.6-0.2-8.4-1.9-8.4  c-1.3,0-3.5,1.4-6.8,4.1l-13.1,10.8c-4.7,3.7-7,3.9-7,0.6c0-1,0.6-2.2,1.9-3.7c6.6-8.2,13.7-15.9,21.2-23.2  c2.3-2.1,4.4-3.2,6.6-3.2c2.3,0,5.6,1.4,10,4.1c6.5,1.5,10.1,2.4,10.8,2.8c3.2,1.7,4.9,5,4.9,9.7  C909.6,457.3,909.3,459.8,908.7,462.7z M938.6,381.3c2.3,1.5,3.4,3.2,3.4,5c0,3.6-6.1,9.2-18.2,16.7c-8,4.8-15.8,6.6-23.3,5.2  c-4.2-0.7-7.9-2.1-11-4.1c-1-0.7-1.7-1.5-2.2-2.3c-0.5-0.8-0.6-1.5-0.3-2c0.4-0.5,1.3-0.6,2.5-0.4c13-9.9,21.5-17,25.6-21.4  c3.2-3.2,5.6-4.8,7-4.8C924.6,373.3,930.1,375.9,938.6,381.3z"></path>	<path class="st3" d="M1041.7,536.1c-34.3,38.5-58.5,57.8-72.4,57.8c-6.6,0-15-4-25.2-12.1c-10.6-4.3-15.9-10.2-15.9-17.5  c0-1.4,0.1-2.8,0.4-4.3c2.5-17,7.7-35.7,15.5-56.3c-5.2-2.4-7.8-4.6-7.8-6.7c0-1.7,1.5-2.6,4.4-2.6c2.3,0,4.6,0.6,7,1.7  c12.6-24.8,23.9-42.4,33.9-52.8c6.5-6.9,12.4-10.4,17.6-10.4c2.4,0,8.3,1.8,17.8,5.4c-0.7-3.7,0.5-5.9,3.6-6.5c0.1,0,3.5,0,10,0  c6.1,0,9.1,0.9,9.1,2.8c0,0.4-0.2,1.4-0.6,3.2c-0.4,1.7-0.6,3.3-0.6,4.8c0,4.5,0.1,10,0.2,16.5c0.1,6.6,0.2,11,0.2,13.2  c0,15.4-4.8,26.1-14.4,32.2c-8.8,5.6-18.6,8.4-29.7,8.4c-5.8,0-15.4-1.4-28.8-4.1c-2.4,3.8-5.1,11.3-8,22.5  c-4,14.1-5.8,26.6-5.5,37.5c0.1,6.4,2.5,9.7,7,9.7c1.7,0,3.9-0.4,6.6-1.1c16.4-5.1,39.2-20.6,68.4-46.5c1.8-1.6,3.7-2.4,5.5-2.4  c2.7,0,4,1.1,4,3.3C1043.9,533.2,1043.1,534.6,1041.7,536.1z M1017,453.9c0-4.8-1.2-7.2-3.6-7.2c-1.6,0-3.8,1-6.8,3  c-13.8,9.8-26,27-36.4,51.5c2.8,0.4,7.8,0.7,14.8,1.1c11.4,0.4,20-1.9,25.6-6.9c4.2-3.7,6.6-9.9,7-18.4  C1017.2,483.3,1017,475.6,1017,453.9z"></path>	<path class="st3" d="M1192.3,449.3c0,16.2-2.5,31.7-7.4,46.5c-1.6,4.5-3.7,6.7-6.4,6.7c-2,0-6.4-2.5-13.1-7.4  c-3.4-2.5-4.2-6-2.5-10.6c4-11.3,5.9-20.3,5.9-27.1c0-2.4-0.6-3.5-1.7-3.5c-1.7,0-4.4,2.2-8.3,6.7c-29.4,33.6-51.3,71.3-65.9,113  c-4.7,13.3-8.6,19.9-11.9,19.9c-1.3,0-6.9-2.2-16.7-6.5c-4.8-2.1-6.4-6.2-4.9-12.3c11.2-42.9,23.2-79.1,36-108.5  c-10.5,9.7-17.1,16.3-19.9,19.9c-1.1,1.5-2.7,2.2-4.7,2.2c-2.4,0-3.6-0.9-3.6-2.8c0-1.1,0.6-2.4,1.7-3.7  c6.9-7.3,16.2-18.5,27.7-33.5c3.5-5.5,7.1-8.2,10.6-8.2c2.5,0,7.7,1.7,15.5,5.2c4.4,2,5.1,4.6,2.1,8c-3.1,3.6-9,16.3-17.6,38.1  c-8.2,21.2-13.8,37.8-16.9,49.8c19.2-37.5,41-70.7,65.5-99.4c4.7-5.5,8.4-8.2,11.2-8.2c2.5,0,6,1.5,10.4,4.5  c5.9,0.6,9.7,1.4,11.2,2.4C1191.1,441.8,1192.3,444.8,1192.3,449.3z"></path></g><g id="L_1_">	<path class="st1" d="M108.6,647.5c16.8-2,33.9-2.2,50.7-0.3c4.2,0.5,8.4,1,12.6,1.7c4.2,0.7,8.4,1.6,12.5,2.6  c8.2,2,16.3,4.6,24.3,7.3c16,5.5,31.7,11.6,47.2,18.1c15.5,6.5,30.9,13.4,46.1,20.9c14.9,7.5,30.2,14.2,45.7,20.3  c15.5,6.1,31.3,11.7,47.2,16.8c15.9,5.1,32,9.8,48.1,14.1c8.1,2.2,16.2,4.2,24.3,6.3c8.1,2,16.3,4.1,24.4,6  c32.5,7.9,65.3,14,98.4,17c33.1,3.1,66.4,2.8,99.4-0.4c16.4-1.7,32.8-4.2,48.5-8.5c3.9-1.1,7.8-2.3,11.6-3.6  c1.9-0.7,3.8-1.4,5.7-2.1c1.9-0.8,3.8-1.5,5.7-2.2c7.5-3.1,14.9-6.6,22-10.5c7.1-3.9,14-8.2,20.8-12.8c1.7-1.2,3.3-2.4,5-3.6  l2.5-1.8c0.8-0.6,1.6-1.3,2.4-1.9l4.8-3.8c1.6-1.3,3.1-2.6,4.7-3.9c12.4-10.6,23.9-22.3,34.3-34.9l10.5,11.6  c-13.6,9.5-27.9,17.9-42.9,25.1c-15,7.2-30.4,13.2-46.2,18.1c-15.8,5-32,8.7-48.4,11.3c-8.2,1.3-16.4,2.3-24.6,3  c-8.2,0.8-16.4,1.3-24.6,1.7c-8.2,0.4-16.4,0.6-24.5,0.8c-8.1,0.1-16.2,0.2-24.4,0.2c-16.3,0-32.7-0.5-49-1.5  c-32.6-1.9-65.2-5.9-97.4-11.7l-12.1-2.3l-11.9-2.4c-8-1.6-15.9-3.3-23.9-5.1c-15.9-3.6-31.8-7.7-47.6-12.4  c-31.5-9.4-62.3-21.2-92-35.2c-3.7-1.7-7.4-3.6-11.1-5.4c-3.7-1.8-7.3-3.7-11-5.6c-7.3-3.7-14.4-7.5-21.5-11.1  c-7.1-3.6-14.1-6.9-21.1-9.9c-7.1-2.9-14.3-5.5-21.7-7.8l-5.6-1.6l-2.8-0.8l-2.8-0.7l-5.7-1.5c-1.9-0.5-3.8-0.9-5.7-1.3  c-3.8-0.8-7.6-1.8-11.4-2.4l-5.7-1l-2.9-0.5l-2.9-0.4c-3.8-0.5-7.6-1.1-11.4-1.4l-5.7-0.5c-1.9-0.2-3.8-0.2-5.7-0.2  c-7.5-0.3-15,0-22.2,0.9c-7.2,0.9-14.1,2.5-20.4,5c-1.6,0.7-3.1,1.3-4.6,2c-1.5,0.7-2.9,1.5-4.3,2.3c-1.4,0.9-2.7,1.7-4,2.7  c-0.6,0.4-1.5,1.1-2.1,1.6c-0.7,0.5-1.3,1.1-2,1.6c-5.1,4.3-9.1,9.3-11.9,14.8c-2.8,5.5-4.3,11.6-4.5,17.9  c-0.3,6.3,0.8,12.9,2.9,19.1c0.3,0.8,0.5,1.5,0.9,2.3c0.3,0.8,0.6,1.4,0.9,2.2c0.3,0.7,0.7,1.4,1,2.1l0.5,1l0.6,1  c1.6,2.7,3.4,5.4,5.6,7.8c2.1,2.5,4.5,4.8,7.1,7c2.6,2.2,5.4,4.2,8.3,6.2c5.9,3.8,12.3,7,19.1,9.6c13.5,5.2,28.2,8,42.5,8.1  c7.1,0.1,14.1-0.7,20.9-2.2c6.8-1.6,13.5-3.9,19.9-6.9c12.9-6.1,24.9-15,36.1-25.2c11.3-10.3,21.9-21.9,32.7-33.8  c20.9-23.2,39.3-48.7,55.2-75.7c16-27,29.4-55.6,41.2-85c5.8-14.7,11.2-29.6,16.3-44.7c5-15.1,9.7-30.3,14.2-45.7l6.7-23.2  l6.5-23.3c4.4-15.7,9.3-31.7,14.9-47.3c5.6-15.7,11.8-31,18.6-46.2c6.8-15.2,14.1-30.1,22.3-44.7c8.2-14.6,17-28.9,26.7-42.7  c4.9-6.9,9.9-13.7,15.2-20.2c5.1-6.4,10.4-12.9,15.9-19.3c5.5-6.4,11.4-12.7,17.8-18.8c6.4-6.1,13.3-12,20.7-17.2  c7.4-5.3,15.2-9.9,23-13.9l2.9-1.5l3.2-1.5c2.2-1,4.4-1.9,6.6-2.8c4.4-1.7,9-3.2,13.6-4.4c9.2-2.4,18.7-3.8,28.4-4  c9.7-0.2,19.6,0.9,29.3,3.6c9.7,2.7,19.3,7.1,27.8,13.3c8.5,6.2,15.7,14.1,21.2,22.8c5.5,8.7,9.3,18,11.8,27.3  c2.5,9.3,3.8,18.7,4.3,27.9c0.4,9.2,0.1,18.3-0.9,27.2c-0.3,2.2-0.6,4.5-0.9,6.7l-1.2,6.5l-1.2,6.5l-0.3,1.6l-0.4,1.6l-0.8,3.2  c-3.9,17-9.7,33.6-17.1,49.3c-7.4,15.7-16.3,30.6-26.4,44.6l-3.9,5.2l-1.9,2.6c-0.7,0.9-1.4,1.7-2,2.5c-2.7,3.3-5.4,6.7-8.2,9.9  l-8.7,9.5c-3,3.1-6.1,6.1-9.1,9.1c-12.4,11.9-25.8,22.7-40,32.3l-5.4,3.5c-1.8,1.2-3.6,2.4-5.4,3.4l-11.1,6.5l-11.3,5.9  c-1.9,1-3.8,1.9-5.8,2.8l-5.8,2.7c-15.5,7-31.5,12.8-47.7,17.5l-6.1,1.7c-2,0.5-4.1,1.2-6.1,1.6l-12.3,2.9l-12.4,2.4  c-2.1,0.4-4.2,0.7-6.2,1l-6.2,1c-16.7,2.4-33.4,3.7-50.2,4.1c-4.2,0-8.4,0.1-12.6,0.1l-12.6-0.3c-8.4-0.5-16.7-0.9-25.1-1.8  c-16.8-1.8-33.5-4.8-49.9-9.3c-16.4-4.5-32.5-10.6-47.8-18.6c-15.3-8.1-29.8-18.2-42.2-30.7c-12.5-12.5-22.8-27.4-29.6-43.7l-1.3-3  c-0.4-1-0.9-2-1.2-3.1l-2.2-6.2c-0.7-2.1-1.2-4.2-1.9-6.3c-0.6-2.1-1.1-4.2-1.6-6.3c-1.1-4.2-1.8-8.5-2.5-12.7  c-0.6-4.3-1.2-8.5-1.5-12.8l-0.3-3.2c-0.1-1.1-0.1-2.1-0.2-3.2c-0.1-2.1-0.2-4.3-0.2-6.4l0-6.4c0-2.1,0.1-4.2,0.2-6.3  c0.3-8.4,1-16.8,2.1-25.1l0.4-3.1l0.5-3.1c0.3-2.1,0.6-4.1,1-6.2l1.1-6.1l1.1-5.9c1.5-8,3.3-16.2,5.3-24.2  c4.1-16.1,9.6-32,16.8-47.1c7.1-15.1,15.9-29.5,26.1-42.7c2.4-3.4,5.3-6.5,8-9.6c1.4-1.6,2.7-3.2,4.1-4.7l4.4-4.5l4.4-4.5  c1.5-1.5,3-2.8,4.5-4.3c1.5-1.4,3.1-2.8,4.6-4.1l2.3-2l2.4-2c12.8-10.6,26.8-19.6,41.5-27.1c14.7-7.4,30.1-13.4,46-17.6  c15.8-4.3,32-7,48.3-7.9l0.3,3.6c-31.8,4-62.6,14.3-90.1,30.2c-13.7,7.9-26.5,17.2-38.1,27.8l-2.2,2l-2.1,2  c-1.4,1.4-2.9,2.7-4.2,4.1c-1.4,1.4-2.8,2.8-4.1,4.2l-3.9,4.4l-3.9,4.4c-1.3,1.5-2.4,3.1-3.7,4.6c-2.4,3.1-4.9,6.1-7,9.4  c-9,12.7-16.5,26.5-22.5,40.9c-6,14.4-10.6,29.3-13.8,44.7c-1.6,7.7-3,15.4-4.1,23.3l-0.9,6l-0.8,5.8c-0.3,1.9-0.5,3.9-0.7,5.8  l-0.3,2.9l-0.3,2.9c-0.8,7.8-1.1,15.5-1.1,23.2c0,1.9,0,3.9,0.1,5.8l0.2,5.7c0.1,1.9,0.3,3.8,0.4,5.7c0.1,0.9,0.1,1.9,0.2,2.8  l0.4,2.8c0.4,3.8,1.1,7.5,1.7,11.2c0.8,3.7,1.5,7.4,2.6,10.9c0.5,1.8,0.9,3.6,1.6,5.4c0.6,1.8,1.1,3.5,1.8,5.3l2,5.1  c0.3,0.9,0.7,1.7,1.1,2.5l1.2,2.5c6.2,13.3,15,25.1,25.6,35.2c10.7,10.1,23.2,18.3,36.7,24.9c13.5,6.6,27.9,11.6,42.8,15.2  c14.8,3.7,30.1,6,45.5,7.2c7.7,0.7,15.5,0.8,23.2,1.1l11.7,0c3.9-0.1,7.8-0.2,11.7-0.3c15.5-0.7,31-2.3,46.2-4.8l5.7-1  c1.9-0.3,3.8-0.6,5.7-1.1l11.3-2.4l11.2-2.8c1.9-0.4,3.7-1.1,5.6-1.6l5.5-1.6c14.7-4.5,29-10.1,42.8-16.6l5.1-2.5  c1.7-0.9,3.5-1.6,5.1-2.6l10-5.5l9.7-5.9c1.7-1,3.2-2.1,4.8-3.1l4.7-3.2c12.4-8.7,24.1-18.4,34.9-29c2.6-2.7,5.3-5.4,7.9-8.1  l7.5-8.5c2.4-2.9,4.7-5.9,7.1-8.8c0.6-0.7,1.2-1.5,1.8-2.2l1.6-2.3l3.3-4.6c8.7-12.3,16.2-25.3,22.4-38.9  c6.3-13.6,11-27.8,14.2-42.2l0.6-2.7l0.3-1.4l0.2-1.4l0.9-5.5l0.9-5.5l0.7-5.4c0.7-7.1,1-14.3,0.6-21.2c-0.7-13.8-4-27-10.4-36.9  c-0.9-1.2-1.7-2.4-2.5-3.6c-1-1.1-1.8-2.2-2.8-3.3c-1-1-2-2-3-3c-1-0.9-2.1-1.8-3.3-2.6c-4.5-3.3-9.8-5.8-15.7-7.4  c-11.7-3.3-25.2-2.9-38.1,0.5c-3.2,0.8-6.4,1.9-9.5,3c-1.5,0.6-3.1,1.2-4.6,1.9l-2.3,1.1l-2.4,1.2c-6.5,3.3-12.7,6.9-18.5,11  c-5.8,4.1-11.3,8.6-16.6,13.7c-5.3,5-10.5,10.5-15.6,16.3c-5.1,5.8-10.1,11.8-15.1,17.9c-4.9,6-9.6,12.1-14.1,18.3  c-9,12.5-17.3,25.6-25.1,39.2c-7.7,13.6-14.9,27.5-21.5,41.7c-6.6,14.2-12.8,28.7-18.3,43.4c-5.5,14.7-10.3,29.6-14.9,44.9  l-6.9,23.3l-7.1,23.3c-4.8,15.6-9.9,31.1-15.3,46.6c-5.4,15.5-11.2,30.9-17.6,46.1c-6.3,15.2-13.1,30.3-20.5,45.1  c-7.4,14.8-15.4,29.3-24,43.6c-17.2,28.4-37,55.4-59.7,79.9c-11,11.9-22.4,24-35.1,35.4c-12.7,11.3-27,21.9-43.4,29.5  c-8.2,3.8-16.9,6.7-25.8,8.7c-8.9,1.9-18.2,2.8-27.2,2.6c-9-0.1-17.9-1.2-26.6-2.9c-8.7-1.8-17.2-4.3-25.5-7.5  c-8.3-3.3-16.3-7.4-24-12.4c-3.8-2.5-7.5-5.3-11-8.4c-3.5-3.1-6.9-6.4-10-10.1c-3.1-3.6-5.9-7.7-8.3-12c-2.4-4.2-4.5-9-5.9-13.4  c-3-9.1-4.5-18.8-4-28.6c0.4-9.8,3-19.8,7.6-28.6c4.6-8.9,11.1-16.5,18.4-22.6c0.9-0.8,1.8-1.5,2.7-2.2c0.9-0.7,1.7-1.3,2.7-2  c1.9-1.4,4-2.7,6.1-4c2.1-1.2,4.2-2.4,6.4-3.4c2.1-1.1,4.3-1.9,6.5-2.8c8.8-3.4,17.7-5.2,26.6-6.3c8.8-1,17.6-1.3,26.2-0.8  c2.1,0.1,4.3,0.1,6.4,0.3l6.4,0.6c4.3,0.3,8.4,1.1,12.6,1.6l3.1,0.5l3.1,0.6l6.2,1.2c4.2,0.7,8.2,1.8,12.3,2.7  c2,0.5,4.1,0.9,6.1,1.4l6.1,1.6l3,0.8l3,0.9l6,1.8c8,2.6,16,5.5,23.8,8.9c7.8,3.4,15.3,7.1,22.6,10.9c7.3,3.8,14.4,7.7,21.4,11.4  c3.5,1.9,7.1,3.7,10.6,5.5c3.5,1.8,7.1,3.6,10.6,5.3c28.5,13.9,58.1,25.6,88.4,35c15.2,4.7,30.5,8.9,46,12.6  c7.8,1.9,15.6,3.6,23.4,5.3l11.8,2.5l11.7,2.4c31.3,6.1,63,10.4,94.8,12.6c15.9,1.1,31.9,1.8,47.9,2c8,0.1,16,0.1,24.1,0.1  c8,0,16-0.2,23.9-0.5c15.9-0.6,31.7-1.7,47.3-4c15.6-2.2,30.9-5.5,46-10.1c15.1-4.5,29.9-10,44.2-16.6c14.2-6.6,27.9-14.4,41-23.2  l47.2-31.9l-36.7,43.4c-11.1,13.2-23.4,25.4-36.7,36.4c-1.7,1.4-3.3,2.8-5,4.1l-5.2,3.9c-0.9,0.6-1.7,1.3-2.6,2l-2.7,1.9  c-1.8,1.2-3.5,2.5-5.3,3.7c-7.2,4.8-14.6,9.3-22.2,13.3c-7.6,4.1-15.5,7.7-23.6,10.9c-2,0.8-4.1,1.5-6.1,2.3  c-2,0.7-4.1,1.5-6.1,2.1c-4.1,1.4-8.3,2.6-12.5,3.7c-16.8,4.3-33.8,6.7-50.8,8.3c-8.5,0.7-17,1.3-25.5,1.5l-6.4,0.2  c-2.1,0.1-4.2,0.1-6.4,0.1l-6.4,0.1c-2.1,0-4.2,0-6.4,0c-17-0.1-34-1.2-50.8-3c-33.8-3.5-67.1-10.3-99.7-18.8  c-8.2-2.1-16.3-4.2-24.4-6.4c-8.1-2.2-16.3-4.4-24.4-6.7c-16.2-4.6-32.3-9.5-48.3-14.9c-31.9-10.8-63.4-23.4-93.4-39  c-14.8-7.6-30-14.7-45.3-21.5c-15.3-6.7-30.8-13.1-46.5-18.8c-7.9-2.8-15.8-5.4-23.8-7.5c-4-1.1-8-2-12.1-2.7  c-4.1-0.8-8.2-1.4-12.3-1.9c-16.5-2.1-33.2-2.2-49.8-0.5L108.6,647.5z"></path></g><g id="Double_trait_vertical">	<path class="st1" d="M199.4,779.3c5.4-2.4,10.7-4.9,16-7.6c5.2-2.7,10.4-5.5,15.5-8.4c10.2-5.9,19.9-12.3,29.3-19.1  c2.4-1.7,4.7-3.5,7-5.3c2.3-1.8,4.6-3.6,6.8-5.5c2.2-1.9,4.5-3.7,6.6-5.6c2.2-1.9,4.3-3.8,6.5-5.7c8.9-7.4,17.1-15.7,25-24.1  c15.8-17.1,30.1-35.6,42.7-55.1c6.3-9.8,12.3-19.8,17.9-30c5.5-10.3,10.7-20.7,15.5-31.3l3.5-8c0.6-1.3,1.2-2.7,1.7-4l1.6-4.1  c1.1-2.7,2.2-5.4,3.3-8.1l3.1-8.2l1.5-4.1l1.4-4.2l2.9-8.4l6.5-16.5c8.5-21.9,15.8-44,22-66.6l9.1-34.1c3.1-11.4,6.5-22.8,10-34.1  c7.3-22.6,15.6-44.8,24.5-66.7l0.5-0.9c-0.1,0-0.1,0.1-0.1,0.1c0,0,0,0.1,0,0.1l0.1-0.2l0.4-0.9l0.8-1.7l1.5-3.4  c1-2.3,2.1-4.5,3.1-6.8c2.1-4.5,4.3-9,6.6-13.4c4.5-8.8,9.3-17.6,14.3-26.2c10-17.2,20.8-33.9,32.4-50l2.2-3l2.2-3  c1.5-2,2.9-4,4.4-6c1.5-2,3.2-3.8,4.8-5.7c1.6-1.9,3.4-3.7,5-5.6c6.8-7.4,14.2-14.3,22.1-20.5c4-3.1,8.1-6,12.4-8.6  c2.1-1.3,4.4-2.5,6.6-3.7c2.1-1.1,4.4-2.3,6.6-3.4c8.9-4.4,18.3-7.9,27.8-10.5c-9.2,3.7-17.9,8.2-26.2,13.4c-2.1,1.3-4.1,2.6-6.2,4  c-2,1.4-4,2.7-5.9,4.2c-3.9,2.9-7.5,6-11,9.4c-7,6.6-13.5,13.9-19.4,21.5c-3,3.8-5.7,7.7-8.6,11.7c-2.8,4-6,7.7-8.8,11.7  c-11.4,15.8-22,32.3-31.8,49.2c-4.9,8.5-9.6,17-14,25.7c-2.2,4.3-4.4,8.7-6.5,13.1c-1,2.2-2.1,4.4-3.1,6.6l-1.5,3.3l-0.7,1.7  l-0.4,0.8l-0.3,0.7c-0.2,0.3-0.3,0.7-0.5,1l0.5-0.9c-8.8,21.8-17.1,43.7-24.3,66c-3.5,11.2-6.9,22.4-9.9,33.7l-9.1,34.2  c-6.3,22.8-13.7,45.5-22.3,67.5l-6.5,16.4l-2.9,8.3l-1.4,4.2l-1.6,4.2l-3.1,8.4c-1.1,2.8-2.2,5.5-3.3,8.3l-1.7,4.1  c-0.6,1.4-1.2,2.7-1.8,4.1l-3.6,8.2c-4.9,10.8-10.2,21.5-15.9,32c-5.7,10.5-11.8,20.7-18.3,30.7c-13,20-27.6,38.9-43.8,56.4  c-8.1,8.7-16.7,17.1-25.7,25.1c-4.5,4-9.5,7.4-14.4,10.8c-2.4,1.7-5,3.3-7.5,5c-2.5,1.6-5,3.2-7.6,4.7c-5.1,3.1-10.3,6-15.6,8.8  c-5.3,2.7-10.6,5.3-16.1,7.7C221.9,771.7,210.7,775.9,199.4,779.3z"></path></g><path id="Haut_plume" class="st1" d="M108.8,614.6c8.7-2.1,18.5-4,29.4-5.4c11.7-1.4,22.4-1.9,31.9-1.8c12.1,0.9,25.5,2.7,40.1,5.6 c16.8,3.4,31.6,7.8,44.4,12.3c4.5,1.6,19,6.4,52.3,20.9c27.8,12.1,27.7,13,43.4,19.7c34.3,14.5,62.7,22,84.3,27.6 c16.4,4.2,37.1,9,61.3,13c26.4,3.9,60.2,7.2,99.6,6.9c57.8-0.5,101-8.6,112.9-11c46.7-9.2,81-22.1,104.6-31c0,0,18.1-6.9,103.8-45.6 l23.5-13.3c-11.3,14.1-22.6,28.2-33.9,42.4c-27.6,20.5-55.1,41.1-82.7,61.6l-123.3,32.2l-181-6.8l-153.5-37l-115.2-53L108.8,614.6z"></path><g id="Coupures_sup&#xE9;rieures_1_">	<path class="st0" d="M836,486.7"></path>	<path class="st0" d="M504.3,678c-0.7,5.3-2.4,13.4-7.1,22.1c-6.3,11.6-14.9,18.4-19.7,21.7c8.2-4.2,19.4-11.3,29.9-23  c5.3-5.9,9.3-11.7,12.3-16.9C514.5,680.7,509.4,679.4,504.3,678z"></path>	<path class="st0" d="M568.2,688.1c-2.1,4.2-4.8,8.8-8,13.5c-7.4,10.7-15.5,18.5-22.4,24c8.7-4.1,19.9-10.5,31-20.7  c6.4-5.8,11.5-11.6,15.4-16.9C579,688.1,573.6,688.1,568.2,688.1z"></path>	<path class="st0" d="M633.1,690.4c-1.5,5.1-3.8,11-7.3,17.4c-6.5,11.7-14.5,19.8-20.4,24.8c8-3.5,18.8-9.1,29.6-18.4  c7.8-6.7,13.6-13.4,17.9-19.1C646.3,693.5,639.7,692,633.1,690.4z"></path>	<path class="st0" d="M711.9,690.4c-0.7,3.3-1.7,6.8-3.1,10.5c-4.1,11.1-10.1,19.4-15,25.1c6.7-4.6,13.8-10,21.2-16.4  c10.6-9.2,19.2-18.4,26-26.8C731.3,685.3,721.6,687.9,711.9,690.4z"></path>	<path class="st0" d="M791,661.6c1.6,4.4,3.5,11.9,2.6,20.9c-1.8,17.2-12.5,28-15.8,31.1c9.6-8.7,20.6-20.5,30.9-35.7  c5.5-8.2,10-16.2,13.5-23.5C811.8,656.8,801.4,659.2,791,661.6z"></path>	<path class="st0" d="M866.6,631.6c0.6,2.9,1.1,6.7,1,11.1c-0.6,25.6-20.4,43.5-19.9,43.9c0.4,0.3,15.3-12.3,25.5-35.2  c6.4-14.4,8.6-27.6,9.4-36.8C877.3,620.3,872,625.9,866.6,631.6z"></path></g><path id="Feuille_volante" class="st1" d="M421.8,42.2c6.6-3.4,14.5-6.8,23.7-9.4c4.1-1.2,8.1-2.1,11.8-2.8c3-0.1,7.5,0.1,12.5,1.8 c8.7,2.9,14,8.5,16.2,11.2c-3.5-0.5-8-0.8-12.9-0.3c-12.5,1.4-21.4,7.3-25.8,10.8c-2.2-1.7-4.8-3.3-7.6-4.9 C433,44.9,426.8,43.1,421.8,42.2z"></path><g>	<path class="st4" d="M258.6,183.6c-5.3,7-10.3,25.7-15,56.2c-4.1,26.9-6,47.9-5.8,63c0.3,15.1,3,22.6,8.1,22.6c0.9,0,2.3-0.3,4-0.9  c1.7-0.6,3.1-0.9,4-0.9c1.7,0,2.6,0.6,2.6,1.8c0,0.9-0.6,1.8-1.9,2.8c-4.3,3.5-10.8,7.3-19.6,11.5c-2.1,1-4,1.5-5.5,1.5  c-8.4,0-11.3-19.5-9-58.4c-20.5,1.1-39.8,2.6-58,4.6l-25.3,28.5c4.5-0.5,6.2-0.7,5.1-0.7c4.1,0,7.2,3.8,9.5,11.5  c0.6,1.8,0.9,3.2,0.9,4.2c0,1.9-0.9,2.8-2.7,2.8c-0.9,0-2.1-0.2-3.8-0.6c-1.7-0.4-3-0.6-3.9-0.6c-7.3,0-17,3.6-29.3,10.7l-5.5,3.2  c-0.7,0-2-0.6-3.8-1.8c-4-2.5-6.8-5.5-8.4-9.1c-1-2.4,0.5-4.9,4.5-7.3c5.3-3.1,12.5-8.4,21.8-15.9c9.2-7.5,15.2-12.8,18-16.1  c-0.8-7.1-1.2-10.9-1.2-11.2c0.2-4.5,2-7.4,5.5-8.7c3.1-1.2,8.5-2,16.4-2.4c21.2-23.7,38.2-46.9,51-69.5c-4.2,2-11.7,4.7-22.5,7.9  c-17.3,5.2-29.3,8.8-35.8,10.9c-9.3,3.1-13.9,8.4-13.9,16c0,1.6,0.2,3.3,0.5,5.2c0.5,2.9-0.3,4.4-2.4,4.4c-1.5,0-2.6-0.6-3.3-1.9  c-4.7-9-7.5-15.4-8.3-19.1c-0.8-3.3-1.2-5-1.2-5.2c0-2.7,1.4-5.3,4.2-7.5c5.1-4,14.8-7,29.2-8.9c21.5-3,40-7.7,55.5-14  c1.9-1.7,2.9-2.7,3.1-2.9c0.4-0.5,0.9-1.6,1.3-3.2c0.5-1.6,1.3-2.4,2.5-2.4c2,0,4.9,1.9,8.8,5.8c1.3,1.3,1.9,2.7,1.9,4  c0,0.8-1.5,3.5-4.4,8.1c-6.3,10.3-14.8,22.7-25.3,37.3c-11.8,16.3-20.9,27.9-27.4,34.7c20.3,0,36.2-0.5,47.7-1.4  c1.2-11,3.8-26.6,7.8-47c2-10,4.1-19.9,6.1-29.9c1.3-8.5,7.5-14.7,18.6-18.6c1.7-0.6,3.1-0.9,4.2-0.9c1.9,0,2.8,0.7,2.8,2.2  C261.1,179.6,260.3,181.4,258.6,183.6z"></path>	<path class="st4" d="M365,296c-5.1,7.1-11.8,17.5-20,31.1c-1.5,3.5-3,7.1-4.5,10.6c-1.2,2.4-2.8,3.6-4.7,3.6  c-1.5,0-3.8-0.6-6.8-1.8c-3.3-1.3-5-2.5-5-3.8c0-0.5,0.6-1.8,1.7-3.6c5.5-10.4,10.5-23.3,14.8-38.7c4.7-16.2,6.7-28.6,6-37.2  c-0.2-3.5-1-5.2-2.6-5.2c-1.1,0-2.8,1-5,2.9c-21.5,19.3-40.1,45.1-55.8,77.5c-2,4-4.3,6-6.9,6c-1.9,0-5-1-9.3-2.9  c-1.7-0.7-2.6-1.4-2.7-2c0-0.3,0.5-1.4,1.4-3.3c4.9-10,9.9-22.6,14.7-37.9c5.2-16.6,8.1-29.5,8.8-38.7c0.2-2.8,0.1-4.2-0.3-4.2  c-0.1,0-1.3,1.1-3.6,3.2c-2.3,2.1-5.5,4.9-9.6,8.2c-0.8,0.7-1.6,1.1-2.6,1.1c-1.2,0-1.8-0.4-1.8-1.3c0-0.6,0.4-1.3,1.3-2.1  c3.7-4.3,8.5-9.7,14.5-16.1c1.3-1.3,2.6-2,4-2c2,0,3.8,1.4,5.4,4.1c6.9,1.9,10.1,4.8,9.7,8.7c-0.9,8.6-5.8,24.2-14.5,46.7  c5.7-10.1,14-21.4,24.9-34c10.9-12.5,19-19.9,24.3-22.2c2.6-1.1,4.5-1.6,5.6-1.6c1.1,0,2.9,0.9,5.4,2.6c7.1,2.3,10.6,6,10.5,11.3  c0,5.5-1.5,14.3-4.4,26.5c-2.3,10-4.4,17.9-6.4,23.4c2.5-2.9,5.6-6.7,9.5-11.3c0.7-0.8,1.4-1.2,2-1.2c1.3,0,1.9,0.7,1.9,2.2  C365.3,295.1,365.2,295.6,365,296z"></path>	<path class="st4" d="M535.8,155.2c1,0.7,1.5,1.5,1.5,2.4c0,1.5-1,2.2-3.1,2.2c-0.8,0-1.6-0.2-2.4-0.6c-4-1.8-7-2.7-9-2.7  c-5.3,0-11.1,4.8-17.5,14.4c-23.5,35.2-40.6,82.2-51.3,140.8c2.2-2,5.2-5,9-9.2c2.2-2.4,3.8-3.6,4.9-3.6c2.3,0,2.5,1.2,0.6,3.6  c-8.2,10.4-13.6,21.7-16.2,33.8c-1,2.9-2.3,4.4-3.8,4.4c-0.8,0-1.7-0.4-2.8-1.1c-4.3-2.7-6.7-4.2-7.2-4.7c-1.7-1.5-2.6-3.5-2.6-6  c0-1.3,0.2-2.9,0.6-4.7c3.7-18.1,6.7-31.6,9.1-40.5c-8.4,11.1-17.8,22.1-28.3,33.1c-10.5,11-18.2,18-23,20.9  c-3.7,2.3-6.4,3.4-8.2,3.4c-1.5,0-3.9-1.1-7-3.4c-5.5-3.1-8.3-6.8-8.3-10.9c0-0.7,0.1-1.5,0.3-2.4c1.8-11.7,7.5-25.3,17.1-40.7  c9.6-15.4,20.6-28.4,32.9-38.9c4-3.5,7.6-5.1,10.7-5.1c3.3,0.2,9.3,3.9,17.8,11.2c0.8,0.6,1.2,1.3,1.2,2c0,1.3-0.9,1.9-2.7,1.9  c-0.6,0-1.2-0.1-1.9-0.4c-6-2.4-10.8-2.3-14.6,0.2c-8,5.5-16.8,15-26.5,28.6c-11.2,15.7-17.7,29.8-19.7,42.4  c-0.4,3,0.4,4.5,2.6,4.5c2.8,0,6.3-1.8,10.4-5.5c9.5-8.6,19.7-19.3,30.6-32.3c11.2-13.4,18.3-23.5,21.5-30.4  c1.8-3.8,3.2-7.4,4.2-10.8c8.9-28.9,18.8-53.6,29.7-74.1c8.5-16,16-26.8,22.5-32.3c2.4-2.1,4.7-3.2,6.9-3.2c2.4,0,5.5,1.3,9.2,3.9  C527.2,148.8,531.5,152,535.8,155.2z"></path>	<path class="st4" d="M564.1,249.4c0,10.3-1.5,20.1-4.5,29.4c-0.9,2.8-2.2,4.2-3.8,4.2c-1.2,0-3.8-1.6-7.9-4.7  c-2-1.6-2.6-3.8-1.5-6.7c2.4-7.1,3.6-12.9,3.6-17.2c0-1.5-0.3-2.2-1-2.2c-1,0-2.7,1.4-5,4.2c-17.7,21.3-31,45.1-39.8,71.6  c-2.8,8.4-5.2,12.6-7.2,12.6c-0.8,0-4.1-1.4-10.1-4.1c-2.9-1.3-3.9-3.9-2.9-7.8c6.7-27.2,14-50.1,21.8-68.8  c-6.3,6.1-10.3,10.3-12,12.6c-0.7,0.9-1.6,1.4-2.8,1.4c-1.5,0-2.2-0.6-2.2-1.8c0-0.7,0.3-1.5,1-2.4c4.2-4.6,9.8-11.7,16.8-21.2  c2.1-3.5,4.3-5.2,6.4-5.2c1.5,0,4.6,1.1,9.3,3.3c2.6,1.3,3.1,2.9,1.3,5.1c-1.9,2.3-5.4,10.3-10.6,24.1  c-4.9,13.4-8.4,23.9-10.2,31.6c11.6-23.8,24.8-44.8,39.5-63c2.8-3.5,5.1-5.2,6.8-5.2c1.5,0,3.6,0.9,6.3,2.8  c3.6,0.4,5.8,0.9,6.8,1.5C563.4,244.7,564.1,246.6,564.1,249.4z"></path>	<path class="st4" d="M632.2,304.4c-20.7,24.4-35.3,36.6-43.8,36.6c-4,0-9.1-2.6-15.2-7.7c-6.4-2.7-9.6-6.4-9.6-11.1  c0-0.9,0.1-1.8,0.3-2.7c1.5-10.8,4.6-22.6,9.3-35.7c-3.2-1.5-4.7-2.9-4.7-4.2c0-1.1,0.9-1.6,2.7-1.6c1.4,0,2.8,0.4,4.2,1.1  c7.6-15.7,14.4-26.8,20.5-33.4c3.9-4.4,7.5-6.6,10.6-6.6c1.4,0,5,1.1,10.7,3.4c-0.4-2.4,0.3-3.7,2.2-4.1c0.1,0,2.1,0,6,0  c3.7,0,5.5,0.6,5.5,1.8c0,0.2-0.1,0.9-0.4,2c-0.3,1.1-0.4,2.1-0.4,3.1c0,2.8,0,6.3,0.1,10.5c0.1,4.2,0.1,6.9,0.1,8.4  c0,9.7-2.9,16.5-8.7,20.4c-5.3,3.5-11.3,5.3-17.9,5.3c-3.5,0-9.3-0.9-17.4-2.6c-1.5,2.4-3.1,7.2-4.9,14.2  c-2.4,8.9-3.5,16.9-3.3,23.8c0.1,4.1,1.5,6.1,4.2,6.1c1,0,2.3-0.2,4-0.7c9.9-3.2,23.7-13,41.3-29.4c1.1-1,2.2-1.5,3.3-1.5  c1.6,0,2.4,0.7,2.4,2.1C633.5,302.6,633,303.5,632.2,304.4z M617.2,252.4c0-3.1-0.7-4.6-2.2-4.6c-0.9,0-2.3,0.6-4.1,1.9  c-8.4,6.2-15.7,17.1-22,32.6c1.7,0.2,4.7,0.5,9,0.7c6.9,0.2,12.1-1.2,15.5-4.4c2.6-2.4,4-6.2,4.2-11.7  C617.3,271,617.2,266.1,617.2,252.4z M648.4,195.7c0.7,0.3,1,0.7,1,1.2c0,2.1-1.7,3.2-5.2,3.2c-2.3,0-5.5,1.4-9.5,4.2  c-6.3,4.6-12.4,10.4-18.3,17.2c-1.1,1.3-2.3,2-3.6,2c-1.7,0-2.6-0.9-2.6-2.6c0-0.5,0.1-1.1,0.4-1.6c3.7-7.3,9.9-15.2,18.8-23.8  c2.7-2.6,5.2-3.9,7.5-3.9c1.1,0,2.4,0.3,4,0.9L648.4,195.7z"></path></g><g>	<path class="st1" d="M549.6,483.2c5.2,0,11,0.6,17.2,1.8c6.3,1.2,11,2.3,14,3.3l-18.3,87.6c-0.2,0.6-0.4,2.2-0.6,4.7  c-0.2,2.5-0.3,4.2-0.3,5c0,1.4,0.3,2.8,0.9,4.2c0.6,1.4,1.6,2.1,3,2.1c2.2,0,4.9-1.4,8.1-4.2c3.2-2.8,6.1-5.6,8.7-8.5  c2.6-2.9,4-4.7,4.2-5.2c1,0,1.9,1.1,2.7,3.3c0.8,2.2,1.2,3.8,1.2,4.8c-1.2,2.4-3.6,5.5-7,9.3c-3.5,3.8-7.6,7.7-12.1,11.7  c-4.6,4-9.3,7.4-14.1,10c-4.8,2.7-9.2,4.1-13.2,4.1c-5,0-9.3-1.7-12.9-5c-3.6-3.3-5.4-8.1-5.4-14.5c0-0.6,0-1.4,0.2-2.4  c0.1-1,0.2-2,0.5-3c0.2-1.2,0.4-2.3,0.6-3.3c0.2-1,0.4-1.8,0.6-2.4c-2,3.6-5.2,7.8-9.8,12.6c-4.5,4.8-9.6,9-15.3,12.4  c-5.7,3.5-11.5,5.2-17.5,5.2c-8.2,0-14.5-3.5-18.8-10.5c-4.3-7-6.5-15.4-6.5-25.2c0-13.2,2.9-25.7,8.7-37.4  c5.8-11.7,13.2-22.1,22.3-31.2c9.1-9.1,18.9-16.2,29.4-21.4C530.5,485.8,540.4,483.2,549.6,483.2z M533.1,499.1  c-5,0-9.7,2.1-14.1,6.2c-4.4,4.1-8.3,9.6-11.7,16.5c-3.4,6.9-6.1,14.5-8,22.9c-1.9,8.4-2.8,16.9-2.8,25.5c0,7,0.9,12.2,2.8,15.6  c1.9,3.4,4.4,5.1,7.7,5.1c3.4,0,7-2.8,11-8.5c3.9-5.7,7.6-13,11.2-22c3.6-9,6.4-18.3,8.4-27.9l5.7-29.7  C541.3,500.3,537.9,499.1,533.1,499.1z"></path>	<path class="st1" d="M684,581.6c0.6-3.2,1.2-6.2,2-9c0.7-2.8,1.2-5,1.7-6.6c-2.8,6-6.4,12-10.8,18c-4.4,6-9.2,11.5-14.2,16.5  c-5.1,5-10,9-14.6,12c-4.6,3-8.5,4.5-11.7,4.5c-7.4,0-12.3-2-14.7-5.9c-2.4-3.9-3.6-10.3-3.6-19.3c0-3.2,0.3-7.2,1.1-12  c0.7-4.8,1.5-9.5,2.4-14.2c0.9-4.7,1.5-8.2,2-10.7c1.2-6,2.3-11.1,3.3-15.5c1-4.3,1.9-9.4,2.7-15.4c0.2-0.6,0.5-2.1,0.8-4.7  c0.3-2.5,0.5-4.1,0.5-5c0-1.4-0.3-2.7-0.9-4c-0.6-1.3-1.7-2-3.3-2c-2,0-4.6,1.4-7.8,4c-3.2,2.7-6.1,5.5-8.5,8.4  c-2.5,2.9-4,4.7-4.4,5.2c-1,0-2-1.1-2.8-3.3c-0.9-2.2-1.4-3.7-1.4-4.5c1.2-2.4,3.5-5.5,6.9-9.3c3.4-3.8,7.3-7.7,11.7-11.7  c4.4-4,8.9-7.4,13.6-10c4.7-2.7,9-4.1,13.1-4.1c5.8,0,10.5,1.8,14.2,5.2c3.7,3.5,5.5,8.7,5.5,15.5c0,2-0.4,5-1,9  c-0.7,4-1.3,6.8-1.7,8.4c-0.2,0.8-0.7,3.1-1.3,6.8c-0.7,3.7-1.5,7.8-2.4,12.1c-0.9,4.4-2,9.8-3.2,16.2c-0.2,1.2-0.6,3.4-1,6.6  c-0.5,3.2-1,6.4-1.5,9.4c-0.5,3.1-0.8,5.2-0.8,6.2c0,1.4,0.3,2.8,1,4c0.7,1.3,1.8,2,3.5,2c2.2,0,5.1-2.4,8.9-7.2  c3.7-4.8,7.6-11,11.7-18.8c4.1-7.7,8-16.2,11.6-25.5c3.6-9.3,6.3-18.5,8.1-27.5l4.2-20.4c1.6-0.4,4.3-0.8,8.1-1.2  c3.8-0.4,6.5-0.6,8.1-0.6c1.6,0,4.4,0.2,8.5,0.6c4.1,0.4,7,0.8,8.8,1.2l-17.1,90.6c-0.2,0.8-0.4,2.4-0.6,4.8  c-0.2,2.4-0.3,4-0.3,4.8c0,1.4,0.3,2.8,0.9,4.2c0.6,1.4,1.6,2.1,3,2.1c2.2,0,4.9-1.4,8.1-4.2c3.2-2.8,6.1-5.6,8.7-8.5  c2.6-2.9,4-4.7,4.2-5.2c1,0,1.9,1.1,2.7,3.3c0.8,2.2,1.2,3.8,1.2,4.8c-1.2,2.4-3.6,5.5-7,9.3c-3.5,3.8-7.6,7.7-12.1,11.7  c-4.6,4-9.3,7.4-14.1,10c-4.8,2.7-9.2,4.1-13.2,4.1c-4.8,0-9.1-1.7-12.9-5c-3.8-3.3-5.7-8.6-5.7-16c0-1,0.2-2.9,0.6-5.6  C682.9,587.8,683.4,584.8,684,581.6z"></path>	<path class="st1" d="M789.9,490.4l4.5-23.4c0.8-1,2.8-2.6,6-4.7c3.2-2.1,6.7-4.3,10.5-6.6c3.8-2.3,7.2-4.2,10.2-5.9  c3-1.6,4.8-2.4,5.4-2.4c1.8,0,3.5,0.6,5.1,1.8l-7.5,41.1h25.5c0.6,0,0.9,0.4,1,1.2c0.1,0.8,0.2,1.6,0.2,2.4c0,3.8-0.9,7.1-2.7,9.9  h-26.7l-14.1,72c-0.2,0.8-0.5,2.4-0.8,4.8c-0.3,2.4-0.5,4-0.5,4.8c0,1.4,0.3,2.8,1,4.2c0.7,1.4,1.7,2.1,3.2,2.1  c2.2,0,4.8-1.4,7.9-4.2c3.1-2.8,5.9-5.6,8.6-8.5c2.6-2.9,4-4.7,4.2-5.2c1,0,2,1.1,2.9,3.3c0.9,2.2,1.3,3.8,1.3,4.8  c-1.2,2.4-3.6,5.5-7,9.3c-3.5,3.8-7.6,7.7-12.3,11.7c-4.7,4-9.5,7.4-14.2,10c-4.8,2.7-9.2,4.1-13.2,4.1c-4.8,0-9.1-1.7-12.8-5  c-3.7-3.3-5.5-8.6-5.5-16c0-2.2,0.3-5.1,1-8.9c0.7-3.7,1.2-6.5,1.7-8.5l14.4-74.7h-21.6c-0.4,0-0.6-0.3-0.6-0.9  c0-1,0.7-2.5,2.1-4.5c1.4-2,3.2-3.8,5.4-5.6c2.2-1.7,4.4-2.5,6.6-2.5H789.9z"></path>	<path class="st1" d="M882.6,524c0.2-0.6,0.5-2.1,0.8-4.7c0.3-2.5,0.5-4.1,0.5-5c0-1.4-0.3-2.7-0.9-4c-0.6-1.3-1.7-2-3.3-2  c-2,0-4.7,1.4-8,4c-3.3,2.7-6.2,5.5-8.7,8.4c-2.5,2.9-4,4.7-4.3,5.2c-1,0-1.9-1.1-2.7-3.3c-0.8-2.2-1.2-3.7-1.2-4.5  c1.2-2.4,3.5-5.5,6.9-9.3c3.4-3.8,7.3-7.7,11.7-11.7c4.4-4,8.9-7.4,13.6-10c4.7-2.7,9-4.1,13-4.1c5.8,0,10.5,1.8,14.2,5.2  c3.7,3.5,5.6,8.7,5.6,15.5c0,2-0.4,5-1.1,9c-0.7,4-1.3,6.8-1.6,8.4l-10.8,54.6c-0.2,0.6-0.5,2.2-0.8,4.7c-0.3,2.5-0.5,4.2-0.5,5  c0,1.4,0.3,2.8,0.9,4.2c0.6,1.4,1.6,2.1,3,2.1c2.2,0,4.9-1.4,8.1-4.2c3.2-2.8,6.1-5.6,8.7-8.5c2.6-2.9,4-4.7,4.2-5.2  c1,0,1.9,1.1,2.7,3.3c0.8,2.2,1.2,3.8,1.2,4.8c-1.2,2.4-3.6,5.5-7,9.3c-3.5,3.8-7.6,7.7-12.2,11.7c-4.6,4-9.3,7.4-14.1,10  c-4.8,2.7-9.2,4.1-13.2,4.1c-4.8,0-9.1-1.7-12.8-5c-3.7-3.3-5.5-8.6-5.5-16c0-2.2,0.3-5.3,1-9.5c0.7-4.1,1.1-6.8,1.3-8L882.6,524z   M913.8,413.3c5,0,9.1,1.8,12.3,5.2c3.2,3.5,4.8,7.9,4.8,13.1c0,6.4-2.3,12.2-6.9,17.2c-4.6,5.1-10,7.7-16.2,7.7  c-5,0-9.1-1.8-12.2-5.6c-3.1-3.7-4.7-8-4.7-13c0-6.4,2.2-12.1,6.8-17.1C902.2,415.8,907.6,413.3,913.8,413.3z"></path>	<path class="st1" d="M1020.6,483.2c5,0,10,0.8,15,2.4c5,1.6,9.2,4.3,12.5,8.2s5,9.3,5,16c0,6-1.8,11.6-5.2,16.8  c-3.5,5.2-8.1,9.8-13.8,13.8c-5.7,4-11.7,7.4-18,10.2c-6.3,2.8-12.4,5-18.2,6.5c-5.8,1.5-10.5,2.2-14.1,2.2  c-0.2,0.4-0.4,1.6-0.5,3.5c-0.1,1.9-0.2,3.3-0.2,4c0,3.6,0.5,7.4,1.4,11.2c0.9,3.9,2.6,7.2,5.2,9.9c2.6,2.7,6.3,4,11.1,4  c3.4,0,6.8-0.9,10-2.8c3.3-1.9,6.4-4.1,9.3-6.5c2.9-2.4,5.3-4.6,7.2-6.6c1.9-2,2.9-3.1,3.2-3.3c1.4,0,2.5,1.3,3.3,3.8  c0.8,2.5,1.2,4.3,1.2,5.2c-1,1.6-3.5,4.3-7.5,8c-4,3.7-8.8,7.6-14.2,11.7c-5.5,4.1-11.2,7.6-17.1,10.5c-5.9,2.9-11.2,4.3-15.8,4.3  c-10.4,0-18.6-3.8-24.6-11.2s-9-18-9-31.6c0-10.8,2.2-21.5,6.8-32.2c4.5-10.7,10.4-20.4,17.5-29.2c7.2-8.8,15.2-15.8,23.9-21  C1003.6,485.8,1012.2,483.2,1020.6,483.2z M984.6,548.3c2.8,0,6.1-1.2,9.9-3.6c3.8-2.4,7.5-5.6,11.1-9.8c3.6-4.1,6.6-8.7,9-13.8  c2.4-5.1,3.6-10.3,3.6-15.8c0-2.8-0.5-5.4-1.4-7.8c-0.9-2.4-3-3.6-6.1-3.6c-3.6,0-6.9,2.1-9.9,6.1c-3,4.1-5.7,9.2-8,15.3  c-2.3,6.1-4.2,12.2-5.5,18.2C985.9,539.6,985,544.5,984.6,548.3z"></path>	<path class="st1" d="M1167,483.2c4.2,0,7.3,0.3,9.3,0.8c2,0.5,4.3,1.5,6.9,2.9c1.2,1.4,2.3,3.2,3.3,5.4c1,2.2,1.5,4.7,1.5,7.5  c0,7-1.9,12.3-5.5,15.9c-3.7,3.6-7.6,5.4-11.5,5.4c-3,0-5.5-0.7-7.7-2.1c-2.1-1.4-4-2.5-5.8-3.3c-1.4-0.8-2.5-1.4-3.2-1.8  c-0.7-0.4-2.2-0.6-4.6-0.6c-2,0-4.8,2.1-8.4,6.3c-3.6,4.2-7.3,9.9-11.2,17.1s-7.6,15.2-11.1,24c-3.5,8.8-6.3,17.9-8.2,27.3l-6,26.7  c-1.4,0.4-4.1,0.8-8,1.2c-3.9,0.4-6.7,0.6-8.2,0.6c-1.6,0-4.5-0.2-8.5-0.6c-4.1-0.4-7.1-0.8-8.9-1.2l17.4-90.6  c0.2-0.6,0.5-2.1,0.8-4.7c0.3-2.5,0.5-4.1,0.5-5c0-1.4-0.3-2.7-0.9-4c-0.6-1.3-1.7-2-3.3-2c-2,0-4.7,1.4-8,4  c-3.3,2.7-6.2,5.5-8.7,8.4c-2.5,2.9-4,4.7-4.3,5.2c-1,0-1.9-1.1-2.7-3.3c-0.8-2.2-1.2-3.7-1.2-4.5c1.2-2.4,3.5-5.5,6.9-9.3  c3.4-3.8,7.3-7.7,11.7-11.7c4.4-4,8.9-7.4,13.6-10c4.7-2.7,9-4.1,13-4.1c5.8,0,10.5,1.8,14.2,5.2c3.7,3.5,5.6,8.7,5.6,15.5  c0,2-0.4,5-1.1,9c-0.7,4-1.3,6.8-1.6,8.4c-0.2,1-0.6,2.8-1.2,5.4c-0.6,2.6-1.2,5.2-1.7,7.8c-0.5,2.6-1,4.3-1.3,5.1  c2-6.6,4.8-13.2,8.5-20c3.7-6.7,7.9-12.8,12.6-18.3c4.7-5.5,9.4-9.9,14.1-13.2C1158.6,484.9,1163,483.2,1167,483.2z"></path></g><path id="Partie_qui_passe_par-dessus_le_A" class="st1" d="M207.4,257.7c0.1-0.3,0.2-0.7,0.2-0.7c0-0.2,0-0.4,0-0.4 c0.1-3.4,2.4-15.9,2.4-15.9c1.4-7.9,1.1-7.3,2.1-12.9c1.6-8.4,3.3-14.6,4.8-20c1.7-5.9,4.2-14.8,8.7-26.1c0,0,4.4-11.1,12.2-26 c1.2-2.3,1.8-3.5,2.6-4.6c0.9-1.4,2.5-3.6,4.3-6.6c1-1.6,1.3-2.2,1-2.6c-0.3-0.4-1.6-0.4-5.1,1.3c-7,3.2-11.7,5.4-17.1,10.7 c-5.1,5-7.4,9.5-12,18.6c-4.3,8.5-6.8,15.5-9.4,23c-2.4,6.9-4.1,12.6-5.1,16.1c-6.2,22-7.7,37.9-9.3,44c-0.5,1.8-0.5,3.7-1,5.5 c-0.2,0.8-0.4,1.6-0.1,2.5c0.4,1.2,1.6,2.4,2.7,2.4c1.2-0.1,1.4-1.5,2.8-2.8c2.8-2.6,5.7-1.3,12-3.8 C204.1,259.2,206.9,258.9,207.4,257.7z"></path><path id="Grossissement_inf&#xE9;rieur_feuille" class="st1" d="M306.9,707c-1,2.3,46.4,25.1,63.2,33.2c25.3,12.2,52.3,25.1,89.7,39.6 c20.8,8.1,40.7,15.8,68.6,23.7c16.9,4.8,43.3,12.2,79,17c35.6,4.8,64.6,5.1,82.7,4.4c25.1-0.9,47.7-3.9,67.1-7.5 c14.4-3.6,35.3-10.5,57.5-24.5c21.4-13.5,36.2-28.6,45.6-39.8c12.9-15.3,26.6-33.7,39.8-55.5c18.9-31.1,31.5-60.5,40-85.1 c-29.2,32.6-58.5,65.1-87.7,97.7c-21.4,15.5-42.9,31.1-64.3,46.6c-13.9,5.9-29.8,11.9-47.7,17c-20.9,6-40.2,9.9-57.2,12.3 c-25.8,1.1-54.7,0.9-86.1-1.7c-32.2-2.6-62.8-6.8-109.3-17.7C381.4,741.7,308.1,704.2,306.9,707z"></path><g id="Coupures_sup&#xE9;rieures">	<path class="st0" d="M908.3,696.2c-6,0.4-13,1.3-20.8,3.5c-15.2,4.2-26.5,11.1-33.9,16.5c8.5-3,20.8-6.1,35.9-6.3  c9.9-0.1,18.5,1.1,25.4,2.6C912.7,707.1,910.5,701.7,908.3,696.2z"></path>	<path class="st0" d="M877.1,767.6c-5.3-2.6-12.7-5.5-21.9-7c-15.5-2.5-28.2,0.3-35.4,2.4c3.5-0.7,26.8-4.9,42.1,9.9  c3.5,3.3,5.9,7,7.6,10.6C872,778.3,874.6,772.9,877.1,767.6z"></path>	<path class="st0" d="M820.1,826.1c-1.9-4.6-7-14.8-18.1-22.7c-8.8-6.3-17.4-8.4-22.2-9.2c4.4,2.7,11.8,8.2,17.9,17.6  c4.9,7.5,6.9,14.7,7.9,19.4C810.4,829.5,815.3,827.8,820.1,826.1z"></path>	<path class="st0" d="M731.1,840.9c-1.4-4.1-3.9-9.8-8.4-15.6c-6.7-8.6-14.4-13.3-19-15.6c2.5,1.9,9,7.4,12.1,17.1  c2.8,8.6,1.5,16,0.8,19.1C721.4,844.3,726.2,842.6,731.1,840.9z"></path>	<path class="st0" d="M635.2,829.7c-0.9-2.2-2-4.6-3.3-7.1c-3.4-6.2-7.3-10.9-10.7-14.4c1.8,3.4,3.9,8.4,4.7,14.7  c0.5,3.2,0.5,6.2,0.4,8.6C629.2,831,632.2,830.3,635.2,829.7z"></path>	<path class="st0" d="M545.4,817.1c0-1.6,0-3.4-0.3-5.2c-1.1-8.3-5-14.5-7.9-18.2c3.6,5,4.4,11.2,1.8,16c-1.7,3.2-4.5,4.9-6,5.6  C537.1,815.9,541.2,816.5,545.4,817.1z"></path>	<path class="st0" d="M464,788.2c-0.3-2-0.8-4.3-1.9-6.9c-2.1-5.3-5.4-9-7.7-11.2c1,2.3,2.2,6,2.2,10.6c0,3.3-0.7,6.1-1.3,8.1  C458.2,788.7,461.1,788.4,464,788.2z"></path></g><g></g><g></g><g></g><g></g><g></g><g></g></svg>